<svg xmlns="http://www.w3.org/2000/svg" viewBox="0 0 640 480"><defs><linearGradient id="metal" x1="0" y1="0" x2="1" y2="1"><stop stop-color="#e6e8e4"/><stop offset=".5" stop-color="#bec5bd"/><stop offset="1" stop-color="#89958d"/></linearGradient><linearGradient id="screen" x1="0" y1="1" x2="1" y2="0"><stop stop-color="#192f32"/><stop offset=".5" stop-color="#4e7373"/><stop offset="1" stop-color="#b9ce9c"/></linearGradient><linearGradient id="dark" x1="0" y1="0" x2="1" y2="1"><stop stop-color="#4e5956"/><stop offset="1" stop-color="#182422"/></linearGradient><filter id="shadow"><feGaussianBlur stdDeviation="9"/></filter></defs><ellipse cx="320" cy="407" rx="172" ry="16" fill="#66835d" opacity=".12" filter="url(#shadow)"/><g transform="rotate(-8 320 240)"><rect x="111" y="205" width="366" height="138" rx="14" fill="url(#metal)"/><rect x="117" y="208" width="354" height="125" rx="11" fill="#f2f4ed"/><rect x="138" y="227" width="19" height="18" rx="3" fill="#e3e8df" stroke="#b9c3b1" stroke-width=".8"/><rect x="161" y="227" width="19" height="18" rx="3" fill="#e3e8df" stroke="#b9c3b1" stroke-width=".8"/><rect x="184" y="227" width="19" height="18" rx="3" fill="#e3e8df" stroke="#b9c3b1" stroke-width=".8"/><rect x="207" y="227" width="19" height="18" rx="3" fill="#e3e8df" stroke="#b9c3b1" stroke-width=".8"/><rect x="230" y="227" width="19" height="18" rx="3" fill="#e3e8df" stroke="#b9c3b1" stroke-width=".8"/><rect x="253" y="227" width="19" height="18" rx="3" fill="#e3e8df" stroke="#b9c3b1" stroke-width=".8"/><rect x="276" y="227" width="19" height="18" rx="3" fill="#e3e8df" stroke="#b9c3b1" stroke-width=".8"/><rect x="299" y="227" width="19" height="18" rx="3" fill="#e3e8df" stroke="#b9c3b1" stroke-width=".8"/><rect x="322" y="227" width="19" height="18" rx="3" fill="#e3e8df" stroke="#b9c3b1" stroke-width=".8"/><rect x="345" y="227" width="19" height="18" rx="3" fill="#e3e8df" stroke="#b9c3b1" stroke-width=".8"/><rect x="368" y="227" width="19" height="18" rx="3" fill="#e3e8df" stroke="#b9c3b1" stroke-width=".8"/><rect x="391" y="227" width="19" height="18" rx="3" fill="#e3e8df" stroke="#b9c3b1" stroke-width=".8"/><rect x="414" y="227" width="19" height="18" rx="3" fill="#e3e8df" stroke="#b9c3b1" stroke-width=".8"/><rect x="138" y="251" width="19" height="18" rx="3" fill="#e3e8df" stroke="#b9c3b1" stroke-width=".8"/><rect x="161" y="251" width="19" height="18" rx="3" fill="#e3e8df" stroke="#b9c3b1" stroke-width=".8"/><rect x="184" y="251" width="19" height="18" rx="3" fill="#e3e8df" stroke="#b9c3b1" stroke-width=".8"/><rect x="207" y="251" width="19" height="18" rx="3" fill="#e3e8df" stroke="#b9c3b1" stroke-width=".8"/><rect x="230" y="251" width="19" height="18" rx="3" fill="#e3e8df" stroke="#b9c3b1" stroke-width=".8"/><rect x="253" y="251" width="19" height="18" rx="3" fill="#e3e8df" stroke="#b9c3b1" stroke-width=".8"/><rect x="276" y="251" width="19" height="18" rx="3" fill="#e3e8df" stroke="#b9c3b1" stroke-width=".8"/><rect x="299" y="251" width="19" height="18" rx="3" fill="#e3e8df" stroke="#b9c3b1" stroke-width=".8"/><rect x="322" y="251" width="19" height="18" rx="3" fill="#e3e8df" stroke="#b9c3b1" stroke-width=".8"/><rect x="345" y="251" width="19" height="18" rx="3" fill="#e3e8df" stroke="#b9c3b1" stroke-width=".8"/><rect x="368" y="251" width="19" height="18" rx="3" fill="#e3e8df" stroke="#b9c3b1" stroke-width=".8"/><rect x="391" y="251" width="19" height="18" rx="3" fill="#e3e8df" stroke="#b9c3b1" stroke-width=".8"/><rect x="414" y="251" width="19" height="18" rx="3" fill="#e3e8df" stroke="#b9c3b1" stroke-width=".8"/><rect x="138" y="275" width="19" height="18" rx="3" fill="#e3e8df" stroke="#b9c3b1" stroke-width=".8"/><rect x="161" y="275" width="19" height="18" rx="3" fill="#e3e8df" stroke="#b9c3b1" stroke-width=".8"/><rect x="184" y="275" width="19" height="18" rx="3" fill="#e3e8df" stroke="#b9c3b1" stroke-width=".8"/><rect x="207" y="275" width="19" height="18" rx="3" fill="#e3e8df" stroke="#b9c3b1" stroke-width=".8"/><rect x="230" y="275" width="19" height="18" rx="3" fill="#e3e8df" stroke="#b9c3b1" stroke-width=".8"/><rect x="253" y="275" width="19" height="18" rx="3" fill="#e3e8df" stroke="#b9c3b1" stroke-width=".8"/><rect x="276" y="275" width="19" height="18" rx="3" fill="#e3e8df" stroke="#b9c3b1" stroke-width=".8"/><rect x="299" y="275" width="19" height="18" rx="3" fill="#e3e8df" stroke="#b9c3b1" stroke-width=".8"/><rect x="322" y="275" width="19" height="18" rx="3" fill="#e3e8df" stroke="#b9c3b1" stroke-width=".8"/><rect x="345" y="275" width="19" height="18" rx="3" fill="#e3e8df" stroke="#b9c3b1" stroke-width=".8"/><rect x="368" y="275" width="19" height="18" rx="3" fill="#e3e8df" stroke="#b9c3b1" stroke-width=".8"/><rect x="391" y="275" width="19" height="18" rx="3" fill="#e3e8df" stroke="#b9c3b1" stroke-width=".8"/><rect x="414" y="275" width="19" height="18" rx="3" fill="#e3e8df" stroke="#b9c3b1" stroke-width=".8"/><rect x="138" y="299" width="19" height="18" rx="3" fill="#e3e8df" stroke="#b9c3b1" stroke-width=".8"/><rect x="161" y="299" width="19" height="18" rx="3" fill="#e3e8df" stroke="#b9c3b1" stroke-width=".8"/><rect x="184" y="299" width="19" height="18" rx="3" fill="#e3e8df" stroke="#b9c3b1" stroke-width=".8"/><rect x="207" y="299" width="19" height="18" rx="3" fill="#e3e8df" stroke="#b9c3b1" stroke-width=".8"/><rect x="230" y="299" width="19" height="18" rx="3" fill="#e3e8df" stroke="#b9c3b1" stroke-width=".8"/><rect x="253" y="299" width="19" height="18" rx="3" fill="#e3e8df" stroke="#b9c3b1" stroke-width=".8"/><rect x="276" y="299" width="19" height="18" rx="3" fill="#e3e8df" stroke="#b9c3b1" stroke-width=".8"/><rect x="299" y="299" width="19" height="18" rx="3" fill="#e3e8df" stroke="#b9c3b1" stroke-width=".8"/><rect x="322" y="299" width="19" height="18" rx="3" fill="#e3e8df" stroke="#b9c3b1" stroke-width=".8"/><rect x="345" y="299" width="19" height="18" rx="3" fill="#e3e8df" stroke="#b9c3b1" stroke-width=".8"/><rect x="368" y="299" width="19" height="18" rx="3" fill="#e3e8df" stroke="#b9c3b1" stroke-width=".8"/><rect x="391" y="299" width="19" height="18" rx="3" fill="#e3e8df" stroke="#b9c3b1" stroke-width=".8"/><rect x="414" y="299" width="19" height="18" rx="3" fill="#e3e8df" stroke="#b9c3b1" stroke-width=".8"/><rect x="229" y="302" width="115" height="18" rx="4" fill="#d7dfce" stroke="#b9c3b1"/><rect x="501" y="226" width="70" height="107" rx="35" fill="url(#metal)"/><path d="M502 267h68M536 228v43" stroke="#adbba3" stroke-width="1.5"/><rect x="532" y="240" width="8" height="20" rx="4" fill="#7e9276"/></g></svg>
